<?xml version="1.0" encoding="utf-8"?>
<!-- Generator: Adobe Illustrator 15.1.0, SVG Export Plug-In . SVG Version: 6.00 Build 0)  -->
<!DOCTYPE svg PUBLIC "-//W3C//DTD SVG 1.1//EN" "http://www.w3.org/Graphics/SVG/1.1/DTD/svg11.dtd">
<svg version="1.1" id="Calque_1" xmlns="http://www.w3.org/2000/svg" xmlns:xlink="http://www.w3.org/1999/xlink" x="0px" y="0px"
	 width="16px" height="16px" viewBox="0 0 16 16" enable-background="new 0 0 16 16" xml:space="preserve">
<path fill-rule="evenodd" clip-rule="evenodd" fill="#FFFFFF" d="M3.36,12.4c1.17,1.229,2.81,2,4.64,2c3.109,0,5.7-2.221,6.279-5.16
	l1.49,0.63C14.93,13.391,11.77,16,8,16c-2.37,0-4.48-1.029-5.95-2.67L0,14.8V8.4L5.6,10.8L3.36,12.4z M16,7.6l-5.6-2.4l2.24-1.6
	c-1.17-1.23-2.811-2-4.641-2c-3.1,0-5.68,2.2-6.27,5.13l-1.5-0.62C1.08,2.61,4.23,0,8,0c2.37,0,4.48,1.03,5.95,2.67L16,1.2V7.6z"/>
</svg>
