<?xml version="1.0" encoding="utf-8"?>
<!-- Generator: Adobe Illustrator 15.1.0, SVG Export Plug-In . SVG Version: 6.00 Build 0)  -->
<!DOCTYPE svg PUBLIC "-//W3C//DTD SVG 1.1//EN" "http://www.w3.org/Graphics/SVG/1.1/DTD/svg11.dtd">
<svg version="1.1" id="Calque_1" xmlns="http://www.w3.org/2000/svg" xmlns:xlink="http://www.w3.org/1999/xlink" x="0px" y="0px"
	 width="26.465px" height="19.998px" viewBox="0 0 26.465 19.998" enable-background="new 0 0 26.465 19.998" xml:space="preserve">
<g>
	<path fill="#FFFFFF" d="M19.486,19.998c-0.003,0-0.007,0-0.01,0c-2.359-0.01-4.557-3.2-6.72-9.752C10.235,2.605,8.19,1,6.917,1
		C6.917,1,6.916,1,6.916,1c-1.271,0.002-3.311,1.607-5.81,9.244L0.951,10.72L0,10.409l0.156-0.475C2.341,3.252,4.552,0.003,6.914,0
		c0.001,0,0.002,0,0.003,0C9.28,0,11.5,3.249,13.705,9.932c2.471,7.483,4.504,9.061,5.775,9.066c0.002,0,0.004,0,0.006,0
		c1.275,0,3.326-1.576,5.871-9.07l0.161-0.474l0.946,0.322l-0.16,0.473C24.077,16.81,21.848,19.998,19.486,19.998z"/>
</g>
</svg>
